# xmcd
#
# Track frame offsets:
#	150
#	17850
#	33880
#	49762
#	64842
#	84197
#	100705
#	114315
#	131967
#	146400
#	165575
#
# Disc length: 2441
#
# Revision: 1
# Processed by: cddbd v1.5.1PL0 Copyright (c) Steve Scherf et al.
# Submitted via: VisiTrax 2.9.5.180 - For more info visit www.synapsa.com
# Normalized: r0:DSETVAR1
#
DISCID=8809870b
DTITLE=Various Artist - CDX 153 January 1997
DYEAR=1997
DGENRE=
TTITLE0=David Kersh - Another you
TTITLE1=Big House - Cold outside
TTITLE2=Tracy Byrd - Don't take her she's all I got
TTITLE3=Noel Haggard - Once you learned
TTITLE4=Caryl Mack Parker - One night stand
TTITLE5=Mark Wills - Places I've never been
TTITLE6=Clay Walker - Rumor has it
TTITLE7=Don Williams - Shadow land
TTITLE8=Baillie and The Boys - The god's honest truth
TTITLE9=Stephanie Bentley - The hopechest song
TTITLE10=Pat McAllister - Still some midnight
EXTD=
EXTT0=
EXTT1=
EXTT2=
EXTT3=
EXTT4=
EXTT5=
EXTT6=
EXTT7=
EXTT8=
EXTT9=
EXTT10=
PLAYORDER=
